<svg width="24" height="24" viewBox="0 0 24 24" fill="none" xmlns="http://www.w3.org/2000/svg">
<path fill-rule="evenodd" clip-rule="evenodd" d="M20 17.3756C21.1046 17.3756 22 16.4802 22 15.3756V9.95206C22 9.88968 21.9807 9.82883 21.9448 9.77783C21.9326 9.7605 21.9186 9.74451 21.9031 9.7301L14.9412 3.2767L14.5 2.85895L13.9118 2.33677L13.6176 2.1279L13.4706 2.02346L13.3235 1.91902L13.3037 1.90494C13.2193 1.84499 13.127 1.79701 13.0294 1.76237L12.934 1.72847C12.8997 1.71632 12.8673 1.69948 12.8377 1.67844C12.7711 1.63113 12.6914 1.60571 12.6097 1.60571H12.5882H12.3676H12.0864C11.9313 1.60571 11.7767 1.62376 11.6257 1.6595L11.4118 1.71015L11.1176 1.81459C10.9232 1.88364 10.7428 1.98738 10.5854 2.12078L2.44118 9.02071L2.17668 9.24612C2.10912 9.30369 2.058 9.37813 2.02853 9.46185C2.00965 9.51549 2 9.57195 2 9.62881V15.3756C2 16.4802 2.89543 17.3756 4 17.3756H20Z" fill="url(#paint0_linear_48_606)"/>
<path d="M15 21V13C15 12.7348 14.8946 12.4804 14.7071 12.2929C14.5196 12.1053 14.2652 12 14 12H10C9.73478 12 9.48043 12.1053 9.29289 12.2929C9.10536 12.4804 9 12.7348 9 13V21M3 9.99999C2.99993 9.70906 3.06333 9.42161 3.18579 9.15771C3.30824 8.8938 3.4868 8.65979 3.709 8.47199L10.709 2.47199C11.07 2.1669 11.5274 1.99951 12 1.99951C12.4726 1.99951 12.93 2.1669 13.291 2.47199L20.291 8.47199C20.5132 8.65979 20.6918 8.8938 20.8142 9.15771C20.9367 9.42161 21.0001 9.70906 21 9.99999V19C21 19.5304 20.7893 20.0391 20.4142 20.4142C20.0391 20.7893 19.5304 21 19 21H5C4.46957 21 3.96086 20.7893 3.58579 20.4142C3.21071 20.0391 3 19.5304 3 19V9.99999Z" stroke="url(#paint1_linear_48_606)" stroke-width="2" stroke-linecap="round" stroke-linejoin="round"/>
<defs>
<linearGradient id="paint0_linear_48_606" x1="12" y1="1.2924" x2="12" y2="17.3756" gradientUnits="userSpaceOnUse">
<stop stop-color="white"/>
<stop offset="1" stop-color="white" stop-opacity="0"/>
</linearGradient>
<linearGradient id="paint1_linear_48_606" x1="12" y1="1.99951" x2="12" y2="21" gradientUnits="userSpaceOnUse">
<stop offset="0.44" stop-color="white"/>
<stop offset="0.44" stop-color="#0058BC"/>
</linearGradient>
</defs>
</svg>
