<svg width="233" height="233" viewBox="0 0 233 233" fill="none" xmlns="http://www.w3.org/2000/svg">
<path d="M0 53C0 23.7289 23.7289 0 53 0H180C209.271 0 233 23.7289 233 53V180C233 209.271 209.271 233 180 233H53C23.7289 233 0 209.271 0 180V53Z" fill="url(#paint0_linear_20_161)"/>
<path d="M114.38 126.99C114.747 128.017 115.003 129.19 115.15 130.51C115.37 131.757 115.48 133.04 115.48 134.36C115.48 135.68 115.37 137 115.15 138.32C115.003 139.567 114.783 140.667 114.49 141.62C113.317 145.727 110.97 149.173 107.45 151.96C103.93 154.673 99.8967 156.653 95.35 157.9C90.8767 159.147 86.22 159.587 81.38 159.22C76.6133 158.853 72.36 157.643 68.62 155.59C66.2733 154.27 64.2567 152.657 62.57 150.75C60.8833 148.843 59.4533 146.717 58.28 144.37C57.84 143.563 57.5467 142.647 57.4 141.62C57.3267 140.52 57.4367 139.493 57.73 138.54C58.0233 137.513 58.5 136.633 59.16 135.9C59.82 135.093 60.7367 134.543 61.91 134.25C62.6433 134.103 63.45 134.03 64.33 134.03C65.2833 134.03 66.2 134.177 67.08 134.47C67.96 134.69 68.7667 135.093 69.5 135.68C70.2333 136.193 70.82 136.927 71.26 137.88C72.0667 139.42 73.2033 140.85 74.67 142.17C76.21 143.417 77.8233 144.443 79.51 145.25C81.93 146.057 84.35 146.387 86.77 146.24C89.2633 146.093 91.5 145.543 93.48 144.59C95.5333 143.637 97.1833 142.353 98.43 140.74C99.6767 139.053 100.3 137.147 100.3 135.02C100.3 133.26 100.043 131.83 99.53 130.73C99.0167 129.557 98.2833 128.603 97.33 127.87C96.45 127.063 95.35 126.403 94.03 125.89C92.7833 125.377 91.39 124.937 89.85 124.57C88.09 124.203 86.2933 123.947 84.46 123.8C82.7 123.653 80.9033 123.47 79.07 123.25C77.2367 123.03 75.44 122.737 73.68 122.37C71.92 122.003 70.1967 121.453 68.51 120.72C65.1367 119.327 62.57 117.2 60.81 114.34C59.05 111.48 57.9867 108.4 57.62 105.1C57.3267 101.8 57.73 98.5367 58.83 95.31C59.93 92.01 61.69 89.1867 64.11 86.84C66.4567 84.7133 69.2433 83.21 72.47 82.33C75.77 81.3767 79.4 80.8267 83.36 80.68C85.56 80.6067 87.76 80.68 89.96 80.9C92.2333 81.12 94.3967 81.4867 96.45 82C98.5767 82.5133 100.52 83.1733 102.28 83.98C104.113 84.7867 105.69 85.74 107.01 86.84C107.963 87.5733 108.917 88.5633 109.87 89.81C110.823 90.9833 111.557 92.2667 112.07 93.66C112.583 94.98 112.73 96.2633 112.51 97.51C112.363 98.7567 111.593 99.82 110.2 100.7C109.027 101.433 107.89 101.763 106.79 101.69C105.763 101.543 104.773 101.213 103.82 100.7C102.867 100.113 101.95 99.4533 101.07 98.72C100.19 97.9867 99.3833 97.3267 98.65 96.74C96.67 95.2733 94.2133 94.2833 91.28 93.77C88.3467 93.2567 85.5967 93.1467 83.03 93.44C81.4167 93.66 79.9133 94.0267 78.52 94.54C77.1267 95.0533 75.9167 95.75 74.89 96.63C73.9367 97.51 73.1667 98.61 72.58 99.93C72.0667 101.177 71.8833 102.607 72.03 104.22C72.1033 105.393 72.4333 106.383 73.02 107.19C73.68 107.997 74.45 108.657 75.33 109.17C76.2833 109.683 77.31 110.087 78.41 110.38C79.51 110.673 80.61 110.893 81.71 111.04C85.01 111.48 88.31 111.81 91.61 112.03C94.91 112.25 98.1367 112.983 101.29 114.23C104.517 115.477 107.267 117.163 109.54 119.29C111.813 121.417 113.427 123.983 114.38 126.99Z" fill="white"/>
<path d="M175.22 148.64C175.367 149.007 175.44 149.557 175.44 150.29C175.44 150.95 175.44 151.5 175.44 151.94C175.44 152.527 175.33 153.077 175.11 153.59C174.89 154.103 174.597 154.58 174.23 155.02C173.57 155.9 172.617 156.56 171.37 157C169.61 157.587 167.96 157.88 166.42 157.88C165.613 157.953 164.77 157.99 163.89 157.99C163.01 157.99 162.13 158.063 161.25 158.21H160.81C155.163 158.283 149.333 158.283 143.32 158.21C141.853 158.137 140.203 158.137 138.37 158.21C136.537 158.357 134.74 158.32 132.98 158.1C131.22 157.953 129.607 157.55 128.14 156.89C126.747 156.157 125.757 155.02 125.17 153.48C125.023 153.113 124.913 152.783 124.84 152.49C124.767 152.123 124.73 151.757 124.73 151.39C124.437 148.897 124.327 146.44 124.4 144.02C124.473 141.6 124.51 139.217 124.51 136.87L124.73 120.92L124.73 106.18C124.73 103.54 124.73 101.193 124.73 99.14C124.803 97.0867 124.877 94.8133 124.95 92.32V91.77C125.023 91.0367 125.06 90.3033 125.06 89.57C125.133 88.8367 125.17 88.1033 125.17 87.37C125.317 85.6833 125.72 84.2533 126.38 83.08C126.82 81.98 127.59 81.1 128.69 80.44C129.643 79.78 130.78 79.45 132.1 79.45C132.613 79.45 133.09 79.4867 133.53 79.56C134.043 79.56 134.52 79.5967 134.96 79.67C135.4 79.7433 135.803 79.89 136.17 80.11C136.61 80.33 137.05 80.6233 137.49 80.99C137.93 81.5033 138.333 82.1267 138.7 82.86C138.993 83.6667 139.177 84.4733 139.25 85.28C139.323 85.7933 139.397 86.27 139.47 86.71C139.543 87.15 139.58 87.59 139.58 88.03C139.433 88.47 139.36 88.91 139.36 89.35C139.36 89.79 139.36 90.1933 139.36 90.56V92.54L138.92 144.35L160.7 144.57H165.87C166.31 144.57 166.787 144.607 167.3 144.68C167.813 144.68 168.327 144.717 168.84 144.79C169.427 144.863 169.94 144.937 170.38 145.01C170.82 145.083 171.26 145.193 171.7 145.34C172.507 145.56 173.167 145.927 173.68 146.44C174.487 147.173 175 147.907 175.22 148.64Z" fill="white"/>
<path fill-rule="evenodd" clip-rule="evenodd" d="M184 114V78.2384L183.5 77.7417L136 46.947L133 44.9603L129 42.4768L127 41.4834L126 40.9868L125 40.4901L124 39.9934L122 39.4967L121 39H120H118.5H115L112 39.4967L110 39.9934L108 40.4901L51 74.2649L48.5 75.755L48 76.7483V114H184Z" fill="url(#paint1_linear_20_161)"/>
<path d="M50 76.9727L106.798 43.3322C113.345 39.4544 121.525 39.6278 127.902 43.7795L182 79" stroke="white" stroke-width="4" stroke-linecap="round"/>
<defs>
<linearGradient id="paint0_linear_20_161" x1="116.5" y1="0" x2="116.5" y2="233" gradientUnits="userSpaceOnUse">
<stop stop-color="#0055FF"/>
<stop offset="0.5" stop-color="#0099FF"/>
<stop offset="1" stop-color="white"/>
</linearGradient>
<linearGradient id="paint1_linear_20_161" x1="116" y1="37.5099" x2="116" y2="114" gradientUnits="userSpaceOnUse">
<stop stop-color="white"/>
<stop offset="1" stop-color="white" stop-opacity="0"/>
</linearGradient>
</defs>
</svg>
