<svg width="91" height="91" viewBox="0 0 91 91" fill="none" xmlns="http://www.w3.org/2000/svg">
<circle cx="45.5" cy="45.5" r="45.5" fill="white"/>
<path d="M74.5234 53.71C74.5234 59.73 72.8319 64.4032 69.4492 67.7285C66.1239 70.9963 61.5659 72.6299 55.7754 72.6299C52.1636 72.6299 48.867 71.8851 45.8857 70.3945C43.3126 69.0585 41.018 67.2938 39 65.1035L42.9248 56.6855C44.9169 58.7817 47.0215 60.3988 49.2393 61.5361C51.4753 62.6828 53.6255 63.2559 55.6895 63.2559C58.3841 63.2559 60.4771 62.4244 61.9678 60.7617C63.5155 59.0417 64.2891 56.6052 64.2891 53.4521V20.6865H43.4775V20.0771L47.2441 12H74.5234V53.71Z" fill="black"/>
<path d="M20.6243 72H11L38.3747 12H48L20.6243 72Z" fill="#00D492"/>
</svg>
