<svg width="64" height="61" viewBox="0 0 64 61" fill="none" xmlns="http://www.w3.org/2000/svg">
<path d="M63.5234 41.71C63.5234 47.73 61.8319 52.4032 58.4492 55.7285C55.1239 58.9963 50.5659 60.6299 44.7754 60.6299C41.1636 60.6299 37.867 59.8851 34.8857 58.3945C32.3126 57.0585 30.018 55.2938 28 53.1035L31.9248 44.6855C33.9169 46.7817 36.0215 48.3988 38.2393 49.5361C40.4753 50.6828 42.6255 51.2559 44.6895 51.2559C47.3841 51.2559 49.4771 50.4244 50.9678 48.7617C52.5155 47.0417 53.2891 44.6052 53.2891 41.4521V8.68652H32.4775V8.07715L36.2441 0H63.5234V41.71Z" fill="black"/>
<path d="M9.62434 60H0L27.3747 0H37L9.62434 60Z" fill="#00D492"/>
</svg>
